# xmcd
#
# Track frame offsets: 
#        150
#        6125
#        25770
#        32315
#        39535
#        44665
#        62710
#        72200
#        86640
#        98745
#        105425
#        114525
#        133500
#        150537
#        166820
#        175070
#        180395
#        194785
#        200230
#        205310
#        214345
#        234325
#        256805
#        262555
#        271905
#        275950
#        285620
#        292735
#        301170
#        306485
#
# Disc length: 4179 seconds
#
# Revision: 1
# Processed by: cddbd v1.5.2PL0 Copyright (c) Steve Scherf et al.
# Submitted via: ExactAudioCopy v0.99pb4
#
DISCID=a710511e
DTITLE=Giya Kancheli - Film Music
DYEAR=1995
DGENRE=Soundtrack
TTITLE0=Don't Grieve
TTITLE1=Don't Grieve
TTITLE2=Don't Grieve
TTITLE3=Don't Grieve
TTITLE4=Don't Grieve
TTITLE5=Don't Grieve
TTITLE6=Don't Grieve
TTITLE7=Don't Grieve
TTITLE8=Don't Grieve
TTITLE9=Don't Grieve
TTITLE10=Don't Grieve
TTITLE11=Day of Wrath
TTITLE12=Day of Wrath
TTITLE13=Day of Wrath
TTITLE14=Day of Wrath
TTITLE15=Day of Wrath
TTITLE16=Day of Wrath
TTITLE17=Day of Wrath
TTITLE18=Day of Wrath
TTITLE19=Day of Wrath
TTITLE20=Kin-Dza-Dza
TTITLE21=Kin-Dza-Dza
TTITLE22=Kin-Dza-Dza
TTITLE23=Kin-Dza-Dza
TTITLE24=Passport
TTITLE25=Passport
TTITLE26=Passport
TTITLE27=Passport
TTITLE28=Passport
TTITLE29=Passport
EXTD=
EXTT0=
EXTT1=
EXTT2=
EXTT3=
EXTT4=
EXTT5=
EXTT6=
EXTT7=
EXTT8=
EXTT9=
EXTT10=
EXTT11=
EXTT12=
EXTT13=
EXTT14=
EXTT15=
EXTT16=
EXTT17=
EXTT18=
EXTT19=
EXTT20=
EXTT21=
EXTT22=
EXTT23=
EXTT24=
EXTT25=
EXTT26=
EXTT27=
EXTT28=
EXTT29=
PLAYORDER=
